<svg width="32" height="32" viewBox="0 0 32 32" fill="none" xmlns="http://www.w3.org/2000/svg">
  <defs>
    <linearGradient id="chartGradient" x1="0%" y1="0%" x2="100%" y2="100%">
      <stop offset="0%" style="stop-color:#3b82f6;stop-opacity:1" />
      <stop offset="100%" style="stop-color:#8b5cf6;stop-opacity:1" />
    </linearGradient>
    <linearGradient id="backgroundGradient" x1="0%" y1="0%" x2="100%" y2="100%">
      <stop offset="0%" style="stop-color:#1e293b;stop-opacity:1" />
      <stop offset="100%" style="stop-color:#0f172a;stop-opacity:1" />
    </linearGradient>
  </defs>
  
  <!-- Background circle -->
  <circle cx="16" cy="16" r="15" fill="url(#backgroundGradient)" stroke="url(#chartGradient)" stroke-width="2"/>
  
  <!-- Chart bars representing startup growth -->
  <rect x="8" y="20" width="2" height="6" fill="url(#chartGradient)" rx="1"/>
  <rect x="11" y="16" width="2" height="10" fill="url(#chartGradient)" rx="1"/>
  <rect x="14" y="12" width="2" height="14" fill="url(#chartGradient)" rx="1"/>
  <rect x="17" y="8" width="2" height="18" fill="url(#chartGradient)" rx="1"/>
  <rect x="20" y="14" width="2" height="12" fill="url(#chartGradient)" rx="1"/>
  
  <!-- Trend line -->
  <path d="M8 22 L11 18 L14 14 L17 10 L20 16" stroke="white" stroke-width="1.5" fill="none" stroke-linecap="round"/>
  
  <!-- Small dots on trend line -->
  <circle cx="8" cy="22" r="1" fill="white"/>
  <circle cx="11" cy="18" r="1" fill="white"/>
  <circle cx="14" cy="14" r="1" fill="white"/>
  <circle cx="17" cy="10" r="1" fill="white"/>
  <circle cx="20" cy="16" r="1" fill="white"/>
</svg>